<svg xmlns="http://www.w3.org/2000/svg" xmlns:xlink="http://www.w3.org/1999/xlink" width="609" height="88" viewBox="0 0 609 88"><defs><path id="a" d="M6.092 5.92h594.504v75.255H6.092z"/></defs><clipPath id="b"><use xlink:href="#a" overflow="visible"/></clipPath><path clip-path="url(#b)" fill="#F00" d="M529.197 52.492c1.295-1.594 3.621-2.165 4.338-4.338-3.256-.871-5.297 3.893-4.338 4.338m-100.66-.87c-.995.915-.746 2.524-1.734 3.468-.973.922-2.062.805-3.014 1.977-1.838 2.238-5.949 7.295-3.93 10.178 4.098-1.055 7.807-5.875 10.727-8.817 2.18-2.188 1.361-4.104 2.283-6.805.541-1.565 3.731-3.476 1.741-5.202-.71 2.802-4.185 3.46-6.073 5.201-.826.761 2.195-2.019 0 0m160.527-25.163c2.809-2.437 7.902 7.749 8.67 9.351 2.356 4.858 3.688 11.553 2.305 16.88-.621 2.393-2.846 3.117-3.783 5.334-1.412 3.351-4.25 4.419-7.214 6.308-2.144 1.367-3.929 4.58-6.454 5.057-2.078.387-5.201 2.691-7.046 3.746-10.31 5.867-23.45 9.357-35.45 7.572-5.744-.855-9.937-2.43-13.778-6.725-1.5-1.682-2.999-3.424-4.214-5.326-1.837-2.875-.096-6.109-.718-9.22-7.097 2.282-13.756 5.884-20.846 8.269-3.505 1.193-7.376 2.305-11.101 1.566-5.451-1.084-6.233-4.004-6.233-8.971 0-4.852-2.444-2.598-4.28-.169-1.713 2.276-4.808 4.587-7.434 5.708-2.912 1.25-8.708 3.32-8.027-1.859.395-3.088 3.344-5.057 4.119-8.02-1.602-1.031-7.346 2.379-9.146 2.84-1.88.475-2.531.87-4.017 1.924-1.347.959-2.707 0-4.185.446-4.705 1.435-15.988 7.88-18.227-.87-4.127 2.297-6 7.279-10.588 8.941-8.927 3.211-1.814-9.542-.695-12.41-2.671-.57-6.125 1.508-8.612 2.261-4.302 1.302-8.729 2.239-13.192 2.679-5.678.562-17.437 1.967-12.176-6.812 5.496-9.19-8.348.088-10.426.402-5.459.819-8.415 11.086-13.727 10.148.614-7.156 7.221-13.207 5.766-20.648-1.896-9.673-13.2 2.15-16.186 5.619-2.48 2.891-2.355 7.375-4.375 10.697-1.471 2.422-2.73 5.48-4.288 7.705-1.046 1.479-4.229-.307-2.634-2.598 1.902-2.736 1.492-5.355 3.812-7.881 5.026-5.486 8.451-26.918-4.821-22.192-1.721.615-1.961.93-2.723 2.466-.746 1.464-2.121.74-3.189 1.662-2.334 2.026-4.801 5.553-6.908 8.012-2.253 2.627-4.682 5.041-6.973 7.609-1.719 1.932-3.549 7.09-6.943 6.074.314-4.04 5.114-7.881 7.777-10.472 2.012-1.954 4.083-3.849 6.029-5.868 2.049-2.129 3.117-5.107 5.283-7.083 8.582-7.858 22.639-5.686 19.09 8.67 2.231.534 3.761-2.891 4.939-4.178 2.37-2.598 6.76-4.866 10.331-4.273 6.878 1.127 3.227 13.719 2.085 18 1.617 1.068 4.617-2.84 6-3.534 3.732-1.88 8.203-4.771 12.498-4.683 7.199.146-3.359 10.463 3.899 11.436 13.427 1.801 31.96-3.768 39.899-15.006 1.244-1.771 2.912-3.345 4.684-1.23 2.23 2.664 3.328-2.896 5.041-.87-.33 3.834-1.954 7.185-3.381 10.683-1.5 3.695-3.761 8.547 2.034 8.408 3.893-.096 7.821-2.203 11.524-3.279 4.479-1.303 8.955-2.686 13.244-4.529 3.351-1.426 7.067-2.225 10.09-4.338 2.722-1.91 5.348-4.785 9.007-4.34-1.376 3.359-4.515 5.269-7.471 7.068-1.5.914-3.007 1.836-4.324 2.992-1.536 1.354-.38 2.115-1.222 2.957-1.215 1.221-1.617-1.668-2.217 1.303-.381 1.908-2.905 3.525-2.123 5.641 3.747-.16 6.746-3.059 9.542-5.209 1.821-1.398 3.951-3.542 5.956-5.182 2.231-1.814 4.441-3.805 6.197-6.094.995-1.296 1.31-3.081 1.895-4.566.645-1.668 1.961-1.311 2.444-2.379 1.376-3.051 2.005-4.821 4.61-7.163 1.697-1.529 2.568-3.358 3.753-5.268 1.303-2.093 2.335-.973 3.783-2.32.922-.856 6.015-4.785 3.899-.117-.783 1.741-2.246 3.124-3.475 4.551-1.068 1.251-1.179 3.183-2.159 4.244-3.944 4.236-7.668 10.332-12.146 14.751-3.439 3.38-7.902 9.563-4.266 14.437 3.006 4.031 10.411 1.367 14.15.117 6.863-2.291 14.568-4.435 20.699-8.283 4.932-3.102 6.513-9.549 11.488-12.461 2.875-1.683 4.99-.746 4.631 2.817-.314 3.329-3.416 5.275-5.978 6.863-5.063 3.14-9.782 7.954-5.575 13.837 4.251 5.941 10.396 9.906 17.779 10.441 13.522.973 28.515-5.283 39.688-12.41 5.379-3.432 11.788-7.932 14.137-14.145 3.4-8.996-3.221-18.303-7.831-25.511 1.149-.995 4.851 7.573 0 0M214.904 48.49c-2.276 2.84-9.022 7.434-11.283 13.018 5.78.197 16.514-6.454 18.227-12.154.724-3.446-3.893-2.745-6.944-.864 0 0 5.656-2.678 0 0m-84.694-.263c-3.82 4.449-10.924 12.314-6.944 19.09 8.956.513 16.844-17.202 6.944-19.09m65.603-35.311c-2.89 2.239-13.609 9.834-11.283 14.751 5.759-3.352 18.915-11.393 20.832-18.227-4.704-.49-6.08.79-9.549 3.476-1.353 1.045 3.571-2.767 0 0m19.091 31.235c1.844-.153 14.092-2.378 12.871 4.536-.747 4.236-8.466 11.275-5.093 15.578 7.346 9.381 25.141-14.092 28.229-18.043 3.49-4.479 8.188-6.308 9.702 1.192 1.346 6.658-3.819 11.824-4.2 18.249-.542 9.197 13.72 1.564 17.971-.887 4.2-2.414 13.814-6.6 16.017-11.077 2.927 2.86-20.231 17.999-23.692 18.769-24.219 5.377-5.868-15.016-10.156-26.583-3.805.409-7.28 7.097-9.542 9.548-3.893 4.215-7.551 8.648-12.805 11.225-8.217 4.018-18.885 3-14.963-8.619-2.21-.557-20.919 15.461-19.961 3.469-5.729 3.402-17.348 15.52-24.292 8.627-7.851-7.809-2.495-24.227.863-32.927-5.415-1.653-13.148 9.066-17.883 11.019-3.19 1.324-5.356.483-8.158 2.693-4.537 3.556-11.246-2.239-11.729 4.653-.432 6.286-8.137 14.854-14.605 15.577-11.941 1.332-.131-20.486 2.393-23.794-4.039-.695-6.219 1.515-9.548 2.604-3.622 1.178-7.427 1.047-11.283 2.598-4.2 1.705-8.612 2.956-11.275 6.951-2.02 3.021-1.398 6.453-4.332 9.52-2.7 2.824-4.295 1.479-6.402-.943-2.583-2.949 2.012-6.695 3.79-8.576 2.67-2.832 6.051-3.08 6.717-7.566.622-4.185-.841-8.238-.644-12.395-3.98 1.428-11.173 3.775-13.924 6.98-1.075 1.259-7.683 3.717-9.468 3.85-4.771.365-9.922 6.182-14.363 5.626-1.858-.233-6.505 2.773-8.568 3.388-6.197 1.822-12.029 4.58-18.16 6.557-7.639 2.465-23.078 3.885-22.288-8.181 2.737.87 3.688 4.185 5.781 5.876 3.198 2.574 8.517 1.316 12.139.613 10.5-2.02 20.67-7.104 30.658-10.879 9.636-3.637 19.236-7.508 28.375-12.279 2.692-1.412 12.629-9.116 15.029-7.624-1.581 5.437-2.21 11.575-1.917 17.224.227 4.339 14.597-2.444 17.81-3.476 3.915-1.258 7.858-2.451 11.875-3.336 1.822.475.439-2.562.871-3.285 2.297-3.842 9.783 7.031 11.041 7.748 8.415 4.771 23.692-7.42 31.126-11.422 3.22-1.734 7.098-3.388 9.666-6.066 2.107-2.188 1.413-5.268 3.754-7.061 2.1-1.61 1.354-3.988 3.073-5.832 2.144-2.297 4.543-4.383 6.958-6.395 3.6-3 9.029-7.31 14.107-4.998 7.061 3.205-2.905 10.215-5.444 12.41-4.251 3.673-9.139 6.541-13.866 9.834-6.256 4.354-6.893 10.251-11.027 15.988-1.485 2.056-3.124 12.555-2.875 14.963.703 7.018 4.976 11.451 11.824 8.129 12.189-5.919 19.14-16.016 29.823-23.75 0 0-5.993 4.339 0 0"/></svg>