<?xml version="1.0" encoding="utf-8"?>
<!-- Generator: Adobe Illustrator 16.0.0, SVG Export Plug-In . SVG Version: 6.00 Build 0)  -->
<!DOCTYPE svg PUBLIC "-//W3C//DTD SVG 1.1//EN" "http://www.w3.org/Graphics/SVG/1.1/DTD/svg11.dtd">
<svg version="1.1" id="Layer_1" xmlns="http://www.w3.org/2000/svg" xmlns:xlink="http://www.w3.org/1999/xlink" x="0px" y="0px"
	 width="609px" height="88px" viewBox="0 0 609 88" enable-background="new 0 0 609 88" xml:space="preserve">
<g>
	<defs>
		<rect id="SVGID_1_" x="6.092" y="5.92" width="594.504" height="75.255"/>
	</defs>
	<clipPath id="SVGID_2_">
		<use xlink:href="#SVGID_1_"  overflow="visible"/>
	</clipPath>
	<path clip-path="url(#SVGID_2_)" fill="#FF0000" d="M529.197,52.492c1.295-1.594,3.621-2.165,4.338-4.338
		C530.279,47.283,528.238,52.047,529.197,52.492 M428.537,51.622c-0.995,0.915-0.746,2.524-1.734,3.468
		c-0.973,0.922-2.062,0.805-3.014,1.977c-1.838,2.238-5.949,7.295-3.93,10.178c4.098-1.055,7.807-5.875,10.727-8.817
		c2.18-2.188,1.361-4.104,2.283-6.805c0.541-1.565,3.731-3.476,1.741-5.202C433.9,49.223,430.425,49.881,428.537,51.622
		C427.711,52.383,430.732,49.603,428.537,51.622 M589.064,26.459c2.809-2.437,7.902,7.749,8.67,9.351
		c2.356,4.858,3.688,11.553,2.305,16.88c-0.621,2.393-2.846,3.117-3.783,5.334c-1.412,3.351-4.25,4.419-7.214,6.308
		c-2.144,1.367-3.929,4.58-6.454,5.057c-2.078,0.387-5.201,2.691-7.046,3.746c-10.31,5.867-23.45,9.357-35.45,7.572
		c-5.744-0.855-9.937-2.43-13.778-6.725c-1.5-1.682-2.999-3.424-4.214-5.326c-1.837-2.875-0.096-6.109-0.718-9.22
		c-7.097,2.282-13.756,5.884-20.846,8.269c-3.505,1.193-7.376,2.305-11.101,1.566c-5.451-1.084-6.233-4.004-6.233-8.971
		c0-4.852-2.444-2.598-4.28-0.169c-1.713,2.276-4.808,4.587-7.434,5.708c-2.912,1.25-8.708,3.32-8.027-1.859
		c0.395-3.088,3.344-5.057,4.119-8.02c-1.602-1.031-7.346,2.379-9.146,2.84c-1.88,0.475-2.531,0.87-4.017,1.924
		c-1.347,0.959-2.707,0-4.185,0.446c-4.705,1.435-15.988,7.88-18.227-0.87c-4.127,2.297-6,7.279-10.588,8.941
		c-8.927,3.211-1.814-9.542-0.695-12.41c-2.671-0.57-6.125,1.508-8.612,2.261c-4.302,1.302-8.729,2.239-13.192,2.679
		c-5.678,0.562-17.437,1.967-12.176-6.812c5.496-9.19-8.348,0.088-10.426,0.402c-5.459,0.819-8.415,11.086-13.727,10.148
		c0.614-7.156,7.221-13.207,5.766-20.648c-1.896-9.673-13.2,2.15-16.186,5.619c-2.48,2.891-2.355,7.375-4.375,10.697
		c-1.471,2.422-2.73,5.48-4.288,7.705c-1.046,1.479-4.229-0.307-2.634-2.598c1.902-2.736,1.492-5.355,3.812-7.881
		c5.026-5.486,8.451-26.918-4.821-22.192c-1.721,0.615-1.961,0.93-2.723,2.466c-0.746,1.464-2.121,0.74-3.189,1.662
		c-2.334,2.026-4.801,5.553-6.908,8.012c-2.253,2.627-4.682,5.041-6.973,7.609c-1.719,1.932-3.549,7.09-6.943,6.074
		c0.314-4.04,5.114-7.881,7.777-10.472c2.012-1.954,4.083-3.849,6.029-5.868c2.049-2.129,3.117-5.107,5.283-7.083
		c8.582-7.858,22.639-5.686,19.09,8.67c2.231,0.534,3.761-2.891,4.939-4.178c2.37-2.598,6.76-4.866,10.331-4.273
		c6.878,1.127,3.227,13.719,2.085,18c1.617,1.068,4.617-2.84,6-3.534c3.732-1.88,8.203-4.771,12.498-4.683
		c7.199,0.146-3.359,10.463,3.899,11.436c13.427,1.801,31.96-3.768,39.899-15.006c1.244-1.771,2.912-3.345,4.684-1.23
		c2.23,2.664,3.328-2.896,5.041-0.87c-0.33,3.834-1.954,7.185-3.381,10.683c-1.5,3.695-3.761,8.547,2.034,8.408
		c3.893-0.096,7.821-2.203,11.524-3.279c4.479-1.303,8.955-2.686,13.244-4.529c3.351-1.426,7.067-2.225,10.09-4.338
		c2.722-1.91,5.348-4.785,9.007-4.34c-1.376,3.359-4.515,5.269-7.471,7.068c-1.5,0.914-3.007,1.836-4.324,2.992
		c-1.536,1.354-0.38,2.115-1.222,2.957c-1.215,1.221-1.617-1.668-2.217,1.303c-0.381,1.908-2.905,3.525-2.123,5.641
		c3.747-0.16,6.746-3.059,9.542-5.209c1.821-1.398,3.951-3.542,5.956-5.182c2.231-1.814,4.441-3.805,6.197-6.094
		c0.995-1.296,1.31-3.081,1.895-4.566c0.645-1.668,1.961-1.311,2.444-2.379c1.376-3.051,2.005-4.821,4.61-7.163
		c1.697-1.529,2.568-3.358,3.753-5.268c1.303-2.093,2.335-0.973,3.783-2.32c0.922-0.856,6.015-4.785,3.899-0.117
		c-0.783,1.741-2.246,3.124-3.475,4.551c-1.068,1.251-1.179,3.183-2.159,4.244c-3.944,4.236-7.668,10.332-12.146,14.751
		c-3.439,3.38-7.902,9.563-4.266,14.437c3.006,4.031,10.411,1.367,14.15,0.117c6.863-2.291,14.568-4.435,20.699-8.283
		c4.932-3.102,6.513-9.549,11.488-12.461c2.875-1.683,4.99-0.746,4.631,2.817c-0.314,3.329-3.416,5.275-5.978,6.863
		c-5.063,3.14-9.782,7.954-5.575,13.837c4.251,5.941,10.396,9.906,17.779,10.441c13.522,0.973,28.515-5.283,39.688-12.41
		c5.379-3.432,11.788-7.932,14.137-14.145C600.295,42.974,593.674,33.667,589.064,26.459
		C590.213,25.464,593.915,34.032,589.064,26.459"/>
	<path clip-path="url(#SVGID_2_)" fill="#FF0000" d="M214.904,48.49c-2.276,2.84-9.022,7.434-11.283,13.018
		c5.78,0.197,16.514-6.454,18.227-12.154C222.572,45.908,217.955,46.609,214.904,48.49C214.904,48.49,220.56,45.812,214.904,48.49
		 M130.21,48.227c-3.82,4.449-10.924,12.314-6.944,19.09C132.222,67.83,140.11,50.115,130.21,48.227 M195.813,12.916
		c-2.89,2.239-13.609,9.834-11.283,14.751c5.759-3.352,18.915-11.393,20.832-18.227C200.658,8.95,199.282,10.23,195.813,12.916
		C194.46,13.961,199.384,10.149,195.813,12.916 M214.904,44.151c1.844-0.153,14.092-2.378,12.871,4.536
		c-0.747,4.236-8.466,11.275-5.093,15.578c7.346,9.381,25.141-14.092,28.229-18.043c3.49-4.479,8.188-6.308,9.702,1.192
		c1.346,6.658-3.819,11.824-4.2,18.249c-0.542,9.197,13.72,1.564,17.971-0.887c4.2-2.414,13.814-6.6,16.017-11.077
		c2.927,2.86-20.231,17.999-23.692,18.769c-24.219,5.377-5.868-15.016-10.156-26.583c-3.805,0.409-7.28,7.097-9.542,9.548
		c-3.893,4.215-7.551,8.648-12.805,11.225c-8.217,4.018-18.885,3-14.963-8.619c-2.21-0.557-20.919,15.461-19.961,3.469
		c-5.729,3.402-17.348,15.52-24.292,8.627c-7.851-7.809-2.495-24.227,0.863-32.927c-5.415-1.653-13.148,9.066-17.883,11.019
		c-3.19,1.324-5.356,0.483-8.158,2.693c-4.537,3.556-11.246-2.239-11.729,4.653c-0.432,6.286-8.137,14.854-14.605,15.577
		c-11.941,1.332-0.131-20.486,2.393-23.794c-4.039-0.695-6.219,1.515-9.548,2.604c-3.622,1.178-7.427,1.047-11.283,2.598
		c-4.2,1.705-8.612,2.956-11.275,6.951c-2.02,3.021-1.398,6.453-4.332,9.52c-2.7,2.824-4.295,1.479-6.402-0.943
		c-2.583-2.949,2.012-6.695,3.79-8.576c2.67-2.832,6.051-3.08,6.717-7.566c0.622-4.185-0.841-8.238-0.644-12.395
		c-3.98,1.428-11.173,3.775-13.924,6.98c-1.075,1.259-7.683,3.717-9.468,3.85c-4.771,0.365-9.922,6.182-14.363,5.626
		c-1.858-0.233-6.505,2.773-8.568,3.388c-6.197,1.822-12.029,4.58-18.16,6.557c-7.639,2.465-23.078,3.885-22.288-8.181
		c2.737,0.87,3.688,4.185,5.781,5.876c3.198,2.574,8.517,1.316,12.139,0.613c10.5-2.02,20.67-7.104,30.658-10.879
		c9.636-3.637,19.236-7.508,28.375-12.279c2.692-1.412,12.629-9.116,15.029-7.624c-1.581,5.437-2.21,11.575-1.917,17.224
		c0.227,4.339,14.597-2.444,17.81-3.476c3.915-1.258,7.858-2.451,11.875-3.336c1.822,0.475,0.439-2.562,0.871-3.285
		c2.297-3.842,9.783,7.031,11.041,7.748c8.415,4.771,23.692-7.42,31.126-11.422c3.22-1.734,7.098-3.388,9.666-6.066
		c2.107-2.188,1.413-5.268,3.754-7.061c2.1-1.61,1.354-3.988,3.073-5.832c2.144-2.297,4.543-4.383,6.958-6.395
		c3.6-3,9.029-7.31,14.107-4.998c7.061,3.205-2.905,10.215-5.444,12.41c-4.251,3.673-9.139,6.541-13.866,9.834
		c-6.256,4.354-6.893,10.251-11.027,15.988c-1.485,2.056-3.124,12.555-2.875,14.963c0.703,7.018,4.976,11.451,11.824,8.129
		C197.27,61.982,204.221,51.885,214.904,44.151C214.904,44.151,208.911,48.49,214.904,44.151"/>
</g>
</svg>
